<?xml version="1.0" encoding="utf-8"?>
<!-- Generator: Adobe Illustrator 24.0.0, SVG Export Plug-In . SVG Version: 6.00 Build 0)  -->
<svg version="1.1" id="Capa_2_1_" xmlns="http://www.w3.org/2000/svg" xmlns:xlink="http://www.w3.org/1999/xlink" x="0px" y="0px"
	 viewBox="0 0 35.78 34" style="enable-background:new 0 0 35.78 34;" xml:space="preserve">
<style type="text/css">
	.st0{fill:#FDFAF0;}
	.st1{fill:none;stroke:#FDFAF0;stroke-miterlimit:10;}
</style>
<g>
	<path class="st0" d="M19.41,6.03c3.37,0,6.51,1.52,8.6,4.16c1.55,1.95,2.37,4.31,2.37,6.81s-0.81,4.84-2.34,6.77
		c-2.1,2.66-5.24,4.19-8.62,4.19c-3.4,0-6.55-1.54-8.65-4.23C9.24,21.81,8.44,19.48,8.44,17c0-2.5,0.82-4.85,2.37-6.81
		C12.9,7.55,16.03,6.03,19.41,6.03 M19.41,5.03c-3.8,0-7.19,1.77-9.38,4.54C8.4,11.62,7.44,14.19,7.44,17
		c0,2.77,0.94,5.33,2.53,7.36c2.19,2.81,5.6,4.61,9.43,4.61c3.82,0,7.22-1.79,9.41-4.58c1.61-2.03,2.56-4.6,2.56-7.39
		c0-2.81-0.96-5.38-2.58-7.43C26.6,6.81,23.21,5.03,19.41,5.03L19.41,5.03z"/>
</g>
<g>
	<path class="st0" d="M19.41,6.03c2.94,0,5.71,1.16,7.75,3.21c-0.83,0.36-1.7,0.65-2.61,0.89c-1.63,0.42-3.36,0.64-5.14,0.64
		c-1.76,0-3.5-0.22-5.16-0.65c-0.89-0.23-1.76-0.52-2.6-0.88C13.7,7.19,16.46,6.03,19.41,6.03 M19.41,5.03
		c-3.8,0-7.19,1.77-9.38,4.54c1.21,0.64,2.55,1.15,3.98,1.52c1.69,0.44,3.51,0.68,5.4,0.68s3.7-0.23,5.39-0.67
		c1.43-0.37,2.77-0.89,3.99-1.52C26.6,6.81,23.21,5.03,19.41,5.03L19.41,5.03z"/>
</g>
<g>
	<path class="st0" d="M19.35,23.16c1.8,0,3.55,0.22,5.21,0.66c0.92,0.24,1.81,0.55,2.63,0.9c-2.05,2.08-4.83,3.25-7.79,3.25
		c-2.98,0-5.76-1.18-7.81-3.27c0.84-0.36,1.72-0.66,2.64-0.9C15.85,23.38,17.58,23.16,19.35,23.16 M19.35,22.16
		c-1.89,0-3.7,0.23-5.38,0.67c-1.44,0.37-2.78,0.89-4.01,1.53c2.19,2.81,5.6,4.61,9.43,4.61c3.82,0,7.22-1.79,9.41-4.58
		c-1.21-0.65-2.56-1.16-4-1.54C23.11,22.4,21.27,22.16,19.35,22.16L19.35,22.16z"/>
</g>
<g>
	<path class="st0" d="M19.41,6.03c2.52,0,5.21,4.41,5.21,10.97s-2.69,10.97-5.21,10.97S14.2,23.56,14.2,17S16.89,6.03,19.41,6.03
		 M19.41,5.03c-3.43,0-6.21,5.36-6.21,11.97s2.78,11.97,6.21,11.97s6.21-5.36,6.21-11.97S22.83,5.03,19.41,5.03L19.41,5.03z"/>
</g>
<line class="st1" x1="19.39" y1="5.22" x2="19.41" y2="28.71"/>
<line class="st1" x1="8" y1="17" x2="30.72" y2="17"/>
<path class="st1" d="M12.22,19.98"/>
<path class="st1" d="M11.46,21.82"/>
</svg>
