<?xml version="1.0" encoding="utf-8"?>
<!-- Generator: Adobe Illustrator 24.0.0, SVG Export Plug-In . SVG Version: 6.00 Build 0)  -->
<svg version="1.1" id="Capa_2" xmlns="http://www.w3.org/2000/svg" xmlns:xlink="http://www.w3.org/1999/xlink" x="0px" y="0px"
	 viewBox="0 0 395 500" style="enable-background:new 0 0 395 500;" xml:space="preserve">
<style type="text/css">
	.st0{fill:none;stroke:#1C1910;stroke-width:2;stroke-linecap:round;stroke-miterlimit:10;}
	.st1{fill:none;stroke:#1C1910;stroke-width:3;stroke-linecap:round;stroke-miterlimit:10;}
	.st2{fill:#1C1910;}
	.st3{fill:none;stroke:#1C1910;stroke-width:0.5;stroke-linecap:round;stroke-miterlimit:10;}
</style>
<path class="st0" d="M300.96,219.62c-1.67,46.6-42.59,83.88-92.84,83.88c-51.3,0-92.88-38.87-92.88-86.84
	c0-47.95,41.59-86.82,92.88-86.82c37.66,0,70.1,20.94,84.68,51.07c0,0,0,0,0,0.01c-0.09,2.01-0.22,4.28-0.4,6.81
	c-0.14,1.9-0.37,3.65-0.7,5.29c-7.35-8.83-18.72-16.33-32.74-21.68c5.37,12.77,8.56,27.72,8.75,43.73c0.01,0.53,0.01,1.06,0.01,1.59
	c0,16.62-3.2,32.15-8.76,45.34c23.96-9.15,40.21-24.58,41.9-42.28C300.89,219.69,300.93,219.66,300.96,219.62z"/>
<path class="st0" d="M267.72,216.66c0,16.62-3.2,32.15-8.76,45.34c-10.47,24.89-29.33,41.5-50.84,41.5
	c-21.5,0-40.35-16.61-50.84-41.5c-5.54-13.19-8.75-28.72-8.75-45.34c0-0.53,0-1.06,0.01-1.59c0.19-16,3.36-30.96,8.73-43.73
	c10.49-24.89,29.33-41.5,50.84-41.5c21.5,0,40.37,16.61,50.84,41.5c5.37,12.77,8.56,27.72,8.75,43.73
	C267.72,215.59,267.72,216.13,267.72,216.66z"/>
<ellipse class="st0" cx="208.13" cy="216.66" rx="26.39" ry="86.83"/>
<path class="st0" d="M267.72,216.66c0,16.62-3.2,32.15-8.76,45.34c-8.99,3.45-19.08,5.99-29.88,7.44
	c-6.74,0.92-13.75,1.39-20.96,1.39s-14.22-0.47-20.96-1.39c-10.8-1.45-20.89-3.99-29.88-7.44c-25.33-9.67-42.05-26.36-42.05-45.34
	c0-18.96,16.72-35.65,42.05-45.32c8.99-3.45,19.08-5.99,29.88-7.44c6.74-0.92,13.75-1.39,20.96-1.39s14.22,0.47,20.96,1.39
	c10.8,1.45,20.89,3.99,29.88,7.44c5.37,12.77,8.56,27.72,8.75,43.73C267.72,215.59,267.72,216.13,267.72,216.66z"/>
<line class="st0" x1="267.7" y1="215.06" x2="115.33" y2="215.06"/>
<path class="st0" d="M289.64,145.36c3.4-4.78,3.51-0.85,8.72,0c5.21,0.86,12.77,1.61,13.09-6.38c0.07-1.78-0.29-3.28-0.9-4.5
	c-2.11-4.3-7.18-5.5-7.18-5.5s-12.33-0.65-19.79,4.31c-3.48,2.31-5.9,5.85-5.53,11.22c1.18,16.92,13.4,19.48,13.4,19.48
	s1.98,1.9,1.36,16.91c0,0,0,0,0,0.01c-0.09,2.01-0.22,4.28-0.4,6.81c-0.14,1.9-0.37,3.65-0.7,5.29
	c-3.26,16.69-14.82,20.14-14.82,20.14"/>
<path class="st0" d="M299,128.96c0,0-2.45-26.79,4.68-31.89c7.13-5.11,11.92-4.26,12.02,5.21s-5.17,32.22-5.17,32.22"/>
<path class="st0" d="M313.29,121.25c0,0,11.14-7.16,12.63,5.5c1.49,12.66-8.09,14.36-8.09,14.36s-5.76,0.21-6.38-2.87"/>
<path class="st0" d="M283.56,230.07c0,0-0.53,2.97,15.33-8.62c0.69-0.5,1.35-1.09,1.97-1.74c0.03-0.03,0.07-0.06,0.1-0.1
	c13.4-14.19,9.52-58.92,9.52-58.92c14.26-9.37,10.52-20.92,10.52-20.92"/>
<path class="st0" d="M283.57,133.3c0,0-3.19-14.85-6.7-21.56c-3.51-6.7-4.79-14.79,0.74-15.11c5.53-0.32,14.29,5.63,17.45,19.05
	s2.77,13.27,2.77,13.27"/>
<path class="st0" d="M208.13,303.49l-26.52,68.4c-2.24,5.79-5.76,11.05-10.48,15.07c-4.79,4.08-11.42,7.58-19.5,6.39
	c-17.4-2.55-35.91-28.25-31.44-48.2c4.47-19.95,20.43-5.91,20.43-5.91s14.05,7.82,16.92,34.64"/>
<path class="st0" d="M123.68,337.25c0,0,6.87-8.54,12.62-6.3c4.33,1.68,15.17,11.6,20.26,16.4c1.42,1.34,3.7,1.05,4.75-0.59
	l28.17-44.45"/>
<path class="st0" d="M215.63,303.49c0,0,0.96,63.21,37.19,53.15c0,0,11.69-5.06,20.42-10.04c1.3-0.74,2.93,0.03,3.15,1.51
	c1.21,7.97,5.17,28.45,13.78,28.32c10.69-0.16,18.99,0.16,26.81-31.28c0,0,6.99-35.58-21.98-38.45c-0.14-0.01-0.27-0.02-0.41-0.03
	c-7.16-0.17-16.72,1.97-36.83,18.04c-22.01,17.6-31.72-19.26-28.85-23.41"/>
<path class="st0" d="M133,227.3c0,0,3.67,0.74,7.77-3.35"/>
<path class="st1" d="M220.15,223.69l3.09,4.47c0,0-21.69,24.84-44.96,24.9c-35.27,0.09-40.83-26.65-40.83-26.65"/>
<line class="st0" x1="228.24" y1="227.09" x2="223.23" y2="228.16"/>
<path class="st0" d="M79.69,242.2c-0.21,0.11-8.67,13.19-3.62,16.17c5.05,2.98,11.86,6.92,19.69-3.09
	c6.43-8.23-3.87-10.8-7.73-11.46c-0.85-0.14-1.72,0.07-2.41,0.59l-1.2,0.91c-1.07,0.81-2.62,0.21-2.87-1.11l-0.27-1.43l-5.75-9.95"
	/>
<path class="st0" d="M95.36,255.79c0,0,9.18,2.13,5.59,7.56c-3.59,5.43-15.4,10.89-19.15-2.2"/>
<path class="st0" d="M100.95,263.35c0,0,6.14,3.59,5.99,7.48c-0.16,4.13-5.99,14.31-19.39,4.33c0,0-3.13-3.8-0.53-6.69"/>
<path class="st0" d="M102.54,278.83l9.9,13.2c0.98,1.31,3.07,0.72,3.22-0.91l3.56-38.39l1.76-1.6"/>
<path class="st0" d="M118.58,253.61c0,0-6.46,4.15-8.86,1.36c-2.39-2.79-6.46-4.87-6.78-8.62s0.24-10.14,8.3-10.85s6.19,0,6.19,0"/>
<g>
	
		<ellipse transform="matrix(0.0123 -0.9999 0.9999 0.0123 7.4656 378.6404)" class="st2" cx="195.4" cy="185.54" rx="30.7" ry="13.24"/>
	
		<ellipse transform="matrix(0.0123 -0.9999 0.9999 0.0123 -24.6026 345.5032)" class="st2" cx="162.59" cy="185.21" rx="30.7" ry="13.24"/>
	<path class="st2" d="M164.39,392.55c0,0-14.36,5.53-28.94,4.47S103.17,395,104.13,390s29.09-5.75,29.09-5.75l10.53,6.45
		C142.38,391.75,157.73,395.51,164.39,392.55z"/>
	<ellipse class="st2" cx="280.06" cy="390.75" rx="32.56" ry="5.96"/>
	<path class="st2" d="M188.44,302.21c5.49,4.09,10.35,8.69,14.47,13.89l4.63-12.34L188.44,302.21z"/>
</g>
<g>
	<path class="st3" d="M119.14,259.52c0,0,5.12-2.58,5.35-3.58"/>
	<g>
		<g>
			<path class="st2" d="M64.76,221.46c-1.86,1.67-2.53,5.74-0.84,7.71c2.11,2.45,5.22,1.43,7.62,0.11c-0.61-0.25-1.22-0.5-1.84-0.75
				c1.38,4.77,7.04,6.26,10.34,2.36c-0.59,0-1.18,0-1.77,0c2.96,3.05,7.33,2.98,10.2-0.17c-0.59,0-1.18,0-1.77,0
				c2.59,3.06,7.67,2.81,11.13,1.7c4.74-1.52,8.99-4.91,12.18-8.67c1.04-1.22-0.72-3-1.77-1.77c-2.74,3.23-6.26,6.2-10.25,7.74
				c-2.77,1.07-7.32,1.83-9.52-0.76c-0.42-0.5-1.34-0.47-1.77,0c-1.96,2.15-4.61,2.28-6.66,0.17c-0.44-0.46-1.33-0.51-1.77,0
				c-2.04,2.41-5.26,1.84-6.16-1.26c-0.23-0.79-1.12-1.14-1.84-0.75c-1.23,0.67-3.12,1.8-4.37,0.52c-0.95-0.96-0.3-3.59,0.62-4.42
				C67.73,222.15,65.96,220.39,64.76,221.46L64.76,221.46z"/>
		</g>
	</g>
	<g>
		<g>
			<path class="st2" d="M108.4,223.65c0.17,0.29,0-0.14,0.04,0.06c0.02,0.11,0.05,0.22,0.08,0.33c0.07,0.25,0.01-0.22,0,0.02
				c-0.01,0.13,0.01,0.26,0.01,0.38c0,0.14-0.02,0.27-0.03,0.41c-0.03,0.35,0.05-0.26-0.01,0.1c-0.05,0.31-0.12,0.61-0.19,0.92
				c-0.3,1.24-0.74,2.43-1.13,3.64c-0.6,1.85-1.76,5.06,0.15,6.55c0.53,0.41,1.25,0.52,1.77,0c0.43-0.43,0.54-1.35,0-1.77
				c-0.08-0.06-0.15-0.14-0.23-0.21c0.24,0.19,0.03,0.09-0.01-0.06c-0.07-0.22,0.03,0.26,0.01,0.01c-0.01-0.1-0.05-0.22-0.07-0.32
				c0.07,0.34,0.01,0.07,0.01-0.02c0-0.13,0-0.25,0-0.38c0.01-0.14,0.02-0.27,0.04-0.41c-0.03,0.23,0,0,0.02-0.1
				c0.23-1.21,0.63-2.37,1.01-3.53c0.67-2.03,1.88-4.84,0.68-6.89C109.75,221,107.59,222.26,108.4,223.65L108.4,223.65z"/>
		</g>
	</g>
	<g>
		<g>
			<path class="st2" d="M108.43,223.89c1.18,1.32,3.22,1.9,4.91,1.32c0.83-0.29,1.59-0.78,2.13-1.47c0.62-0.78,0.96-1.62,1.08-2.61
				c0.08-0.65-0.63-1.28-1.25-1.25c-0.74,0.03-1.17,0.55-1.25,1.25c0.04-0.37-0.03,0.08-0.05,0.17c-0.02,0.08-0.05,0.16-0.08,0.25
				c-0.05,0.16-0.02-0.01,0.03-0.06c-0.09,0.1-0.15,0.3-0.22,0.42c-0.04,0.06-0.08,0.12-0.12,0.18c-0.13,0.19,0.12-0.12,0.01-0.01
				c-0.1,0.1-0.19,0.21-0.3,0.31c-0.03,0.03-0.12,0.14-0.16,0.14c0.13-0.1,0.16-0.12,0.08-0.06c-0.02,0.02-0.05,0.03-0.07,0.05
				c-0.13,0.09-0.27,0.17-0.41,0.24c-0.14,0.08-0.01-0.01,0.06-0.02c-0.08,0.01-0.17,0.06-0.24,0.09c-0.1,0.03-0.34,0.04-0.43,0.1
				c0.08-0.06,0.25-0.02,0.03-0.01c-0.07,0.01-0.15,0.01-0.22,0.01c-0.11,0-0.35,0.03-0.44-0.02c0.17,0.02,0.21,0.03,0.11,0.01
				c-0.03,0-0.06-0.01-0.09-0.02c-0.07-0.01-0.14-0.03-0.21-0.05c-0.14-0.04-0.28-0.12-0.42-0.14c0.15,0.06,0.18,0.08,0.1,0.04
				c-0.04-0.02-0.08-0.04-0.12-0.06c-0.06-0.03-0.13-0.07-0.19-0.11c-0.06-0.04-0.12-0.08-0.18-0.12c-0.19-0.13,0.12,0.11,0.01,0.01
				c-0.12-0.11-0.24-0.22-0.34-0.34c-0.44-0.49-1.33-0.48-1.77,0C107.95,222.65,107.97,223.37,108.43,223.89L108.43,223.89z"/>
		</g>
	</g>
	<g>
		<g>
			<path class="st2" d="M88.5,229.47c-0.19-0.58-0.32-1.18-0.4-1.78c0.01,0.11,0.03,0.22,0.04,0.33c-0.05-0.42-0.08-0.83-0.09-1.25
				c0-0.32-0.14-0.65-0.37-0.88c-0.22-0.22-0.57-0.38-0.88-0.37c-0.67,0.03-1.26,0.55-1.25,1.25c0.01,1.14,0.19,2.28,0.54,3.37
				c0.1,0.31,0.29,0.58,0.57,0.75c0.27,0.16,0.66,0.22,0.96,0.13c0.3-0.1,0.59-0.29,0.75-0.57C88.53,230.15,88.6,229.8,88.5,229.47
				L88.5,229.47z"/>
		</g>
	</g>
	<g>
		<g>
			<path class="st2" d="M58,191c-2.35,7.9-0.68,15.97,3.77,22.79c4.02,6.16,9.63,11.71,16.73,14.08c4.1,1.37,8.58,1.58,12.74,0.34
				c1.54-0.46,0.88-2.87-0.66-2.41c-8.81,2.63-17.41-2.13-23.12-8.63c-2.94-3.35-5.55-7.25-6.93-11.51c-1.48-4.55-1.48-9.42-0.11-14
				C60.87,190.12,58.46,189.46,58,191L58,191z"/>
		</g>
	</g>
	<g>
		<g>
			<path class="st2" d="M60.02,193.02c4.06-0.27,8.14,1.09,11.07,3.96c3.04,2.98,4.46,7.11,4.22,11.32
				c-0.21,3.68-0.46,8.57,3.79,10.14c4.05,1.5,6.56-2.99,7.15-6.29c0.43-2.38,0.25-4.69-0.33-7.02c-0.29-1.2-0.71-2.56-0.2-3.75
				c0.44-1.02,1.36-1.64,2.42-1.87c1.57-0.34,0.91-2.75-0.66-2.41c-1.68,0.37-3.14,1.47-3.91,3.02c-0.95,1.9-0.48,3.94,0,5.9
				c0.54,2.25,0.61,4.52-0.02,6.76c-0.41,1.47-1.53,3.91-3.46,3.37c-2.11-0.59-2.48-3.27-2.44-5.08c0.05-2.16,0.33-4.25,0.01-6.41
				c-0.56-3.79-2.49-7.43-5.38-9.97c-3.35-2.95-7.81-4.44-12.26-4.15C58.42,190.62,58.41,193.12,60.02,193.02L60.02,193.02z"/>
		</g>
	</g>
	<g>
		<g>
			<path class="st2" d="M60.87,189.42c-3.29-1.86-5.18-5.25-6.05-8.85c-0.97-4.03-1.07-8.63-0.66-12.75
				c0.21-2.12,0.89-4.12,1.77-6.05c0.77-1.69,1.54-3.53,2.72-4.97c2.49-3.03,6.79-2.24,10.18-3.28c3.64-1.12,6.05-4.38,9.42-6.04
				c3.72-1.84,7.91-3.26,11.97-4.09c3.98-0.81,8.18-0.7,11.82,1.24c2.94,1.57,5.33,4.02,7.07,6.85c4.99,8.09,4.07,18.07,2.45,27.02
				c-0.1,0.53,0.06,1.14,0.57,1.41c3.1,1.64,5.24,4.46,6,7.89c0.35,1.57,2.76,0.91,2.41-0.66c-0.89-4.01-3.52-7.46-7.15-9.38
				c0.19,0.47,0.38,0.94,0.57,1.41c1.61-8.87,2.54-18.5-1.56-26.87c-3.49-7.12-10.27-12.2-18.4-11.88
				c-4.75,0.19-9.34,1.78-13.74,3.49c-2.05,0.8-4.09,1.67-5.89,2.95c-1.71,1.21-3.17,2.85-5.06,3.8c-3.62,1.81-8.06,0.62-11.37,3.33
				c-1.52,1.24-2.48,3-3.33,4.73c-0.99,2.02-1.98,4.1-2.52,6.3c-0.62,2.57-0.6,5.24-0.56,7.87c0.04,2.65,0.19,5.32,0.76,7.91
				c0.96,4.37,3.32,8.54,7.3,10.79C61.01,192.37,62.27,190.21,60.87,189.42L60.87,189.42z"/>
		</g>
	</g>
	<g>
		<g>
			<path class="st2" d="M95.29,195.43c3.96-0.65,8.63-1.74,10.46-5.79c0.28-0.61,0.18-1.34-0.45-1.71
				c-0.54-0.31-1.43-0.17-1.71,0.45c-0.67,1.48-1.82,2.46-3.29,3.18c-1.75,0.86-3.77,1.15-5.67,1.46c-0.67,0.11-1.04,0.94-0.87,1.54
				C93.94,195.27,94.62,195.54,95.29,195.43L95.29,195.43z"/>
		</g>
	</g>
	<g>
		<g>
			<path class="st2" d="M116.81,265.21c-2.93-1.6-5.93-3.05-8.88-4.61c-1.4-0.74-2.79-1.51-4.14-2.34
				c-0.69-0.42-1.37-0.86-2.04-1.31c-0.4-0.27-1.84-0.99-1.92-1.45c0,0.22,0,0.44,0,0.66c0.1-0.53,0.65-1.01,0.99-1.41
				c0.37-0.44,0.75-0.86,1.13-1.28c0.81-0.87,1.68-1.7,2.57-2.49c1.21-1.06-0.56-2.82-1.77-1.77c-1.02,0.89-1.98,1.83-2.89,2.83
				c-0.79,0.87-1.93,1.92-2.34,3.04c-0.49,1.34,0.4,2.21,1.4,2.94c1.09,0.79,2.21,1.53,3.35,2.24c4.27,2.64,8.87,4.7,13.27,7.11
				C116.96,268.14,118.22,265.98,116.81,265.21L116.81,265.21z"/>
		</g>
	</g>
	<g>
		<g>
			<path class="st2" d="M106.61,282.89c3.56-3.83,7.26-7.52,10.82-11.36c1.09-1.18-0.67-2.95-1.77-1.77
				c-3.56,3.83-7.26,7.52-10.82,11.36C103.75,282.3,105.51,284.07,106.61,282.89L106.61,282.89z"/>
		</g>
	</g>
	<g>
		<g>
			<path class="st2" d="M103.56,240.83c-4.96-2.92-9.75-6.13-14.34-9.61c-0.54-0.41-1.4-0.09-1.71,0.45
				c-0.38,0.64-0.09,1.3,0.45,1.71c4.59,3.48,9.38,6.69,14.34,9.61C103.69,243.81,104.94,241.64,103.56,240.83L103.56,240.83z"/>
		</g>
	</g>
	<g>
		<g>
			<path class="st2" d="M92.08,231.83c-1.12,1.08-2.23,2.17-3.35,3.25c-1.1,1.07-2.26,2.1-3.24,3.27c-0.85,1.03-1.77,2.15-2.25,3.41
				c-0.37,0.96-0.46,2.09-1.07,2.94c-0.39,0.55-0.1,1.39,0.45,1.71c0.63,0.37,1.32,0.1,1.71-0.45c0.64-0.89,0.83-2.03,1.16-3.05
				c0.35-1.09,1.18-2.1,1.93-2.97c0.95-1.1,2.04-2.08,3.08-3.09c1.12-1.08,2.23-2.17,3.35-3.25
				C95.01,232.48,93.24,230.71,92.08,231.83L92.08,231.83z"/>
		</g>
	</g>
</g>
<g>
</g>
<g>
</g>
<g>
</g>
<g>
</g>
<g>
</g>
<g>
</g>
</svg>
